
        <svg xmlns="http://www.w3.org/2000/svg" xmlns:xlink="http://www.w3.org/1999/xlink" version="1.1" width="3162.2002820874472" 
        height="738.4302444878891" viewBox="0 0 3162.2002820874472 738.4302444878891">
			
			<g transform="scale(8.110014104372356) translate(10, 10)">
				<defs id="SvgjsDefs1496"></defs><g id="SvgjsG1497" featureKey="UqkkrJ-0" transform="matrix(0.8642807968488386,0,0,0.8642807968488386,-5.170991836104183,-7.688641889639999)" fill="#4ecca3"><g xmlns="http://www.w3.org/2000/svg"><polygon points="31.794,60.738 18.889,17.403 5.983,60.738 13.439,61.38 13.439,73.987 24.339,73.987 24.339,61.38  "></polygon><polygon points="48.276,45.333 42.015,24.314 35.756,45.333 39.373,45.644 39.373,51.76 44.66,51.76 44.66,45.644  "></polygon><polygon points="73.797,23.666 69.398,8.896 65,23.666 67.538,23.884 67.538,28.183 71.255,28.183 71.255,23.884  "></polygon><polygon points="72.847,78.006 60.093,35.175 47.335,78.006 54.707,78.641 54.707,91.105 65.479,91.105 65.479,78.641  "></polygon><polygon points="94.018,52.255 82.688,14.213 71.357,52.255 77.906,52.819 77.906,63.888 87.473,63.888 87.473,52.819  "></polygon></g></g><g id="SvgjsG1498" featureKey="0kuQ8p-0" transform="matrix(4.199832419406483,0,0,4.199832419406483,92.64013326342035,-18.527015962268962)" fill="#393e46"><path d="M3 8 l0 3.9 l3.02 0 l0 2 l-3.02 0 l0 4.1 l3.8 0 l0 2 l-6 0 l0 -14 l6 0 l0 2 l-3.8 0 z M9.8 6 l1.66 11.42 l0.04 0 l1.66 -11.42 l2.02 0 l-2.16 14 l-3.28 0 l-2.16 -14 l2.22 0 z M26.140000000000004 20 l-2.24 0 c-0.12 -0.36 -0.2 -0.58 -0.2 -1.72 l0 -2.2 c0 -1.3 -0.44 -1.78 -1.44 -1.78 l-0.76 0 l0 5.7 l-2.2 0 l0 -14 l3.32 0 c2.28 0 3.26 1.06 3.26 3.22 l0 1.1 c0 1.44 -0.46 2.36 -1.44 2.82 l0 0.04 c1.1 0.46 1.46 1.5 1.46 2.96 l0 2.16 c0 0.68 0.02 1.18 0.24 1.7 z M22.560000000000002 8 l-1.06 0 l0 4.3 l0.86 0 c0.82 0 1.32 -0.36 1.32 -1.48 l0 -1.38 c0 -1 -0.34 -1.44 -1.12 -1.44 z M32.220000000000006 6 l2.24 14 l-2.22 0 l-0.38 -2.54 l-2.7 0 l-0.38 2.54 l-2.02 0 l2.24 -14 l3.22 0 z M30.480000000000008 8.48 l-1.04 7.08 l2.12 0 l-1.04 -7.08 l-0.04 0 z M40.18000000000001 20 l-2.7 -10.14 l-0.04 0 l0 10.14 l-1.98 0 l0 -14 l2.76 0 l2.22 8.38 l0.04 0 l0 -8.38 l1.96 0 l0 14 l-2.26 0 z M47.32000000000001 14.2 l0 -2 l3.08 0 l0 4.44 c0 2.24 -1.12 3.52 -3.28 3.52 s-3.28 -1.28 -3.28 -3.52 l0 -7.28 c0 -2.24 1.12 -3.52 3.28 -3.52 s3.28 1.28 3.28 3.52 l0 1.36 l-2.08 0 l0 -1.5 c0 -1 -0.44 -1.38 -1.14 -1.38 s-1.14 0.38 -1.14 1.38 l0 7.56 c0 1 0.44 1.36 1.14 1.36 s1.14 -0.36 1.14 -1.36 l0 -2.58 l-1 0 z M54.02 8 l0 3.9 l3.02 0 l0 2 l-3.02 0 l0 4.1 l3.8 0 l0 2 l-6 0 l0 -14 l6 0 l0 2 l-3.8 0 z M66.02 20 l-2.24 0 c-0.12 -0.36 -0.2 -0.58 -0.2 -1.72 l0 -2.2 c0 -1.3 -0.44 -1.78 -1.44 -1.78 l-0.76 0 l0 5.7 l-2.2 0 l0 -14 l3.32 0 c2.28 0 3.26 1.06 3.26 3.22 l0 1.1 c0 1.44 -0.46 2.36 -1.44 2.82 l0 0.04 c1.1 0.46 1.46 1.5 1.46 2.96 l0 2.16 c0 0.68 0.02 1.18 0.24 1.7 z M62.440000000000005 8 l-1.06 0 l0 4.3 l0.86 0 c0.82 0 1.32 -0.36 1.32 -1.48 l0 -1.38 c0 -1 -0.34 -1.44 -1.12 -1.44 z"></path></g>
			</g>
		</svg>
	